<svg class="main-svg" xmlns="http://www.w3.org/2000/svg" xmlns:xlink="http://www.w3.org/1999/xlink" width="550" height="500" viewBox="0 0 550 500"><rect x="0" y="0" width="550" height="500" style="fill: rgb(255, 255, 255); fill-opacity: 1;"/><defs id="defs-1452da"><g class="clips"><clipPath id="clip1452daxyplot" class="plotclip"><rect width="390" height="320"/></clipPath><clipPath class="axesclip" id="clip1452dax"><rect x="80" y="0" width="390" height="500"/></clipPath><clipPath class="axesclip" id="clip1452day"><rect x="0" y="100" width="550" height="320"/></clipPath><clipPath class="axesclip" id="clip1452daxy"><rect x="80" y="100" width="390" height="320"/></clipPath></g><g class="gradients"/></defs><g class="bglayer"><rect class="bg" x="80" y="100" width="390" height="320" style="fill: rgb(229, 236, 246); fill-opacity: 1; stroke-width: 0;"/></g><g class="layer-below"><g class="imagelayer"/><g class="shapelayer"/></g><g class="cartesianlayer"><g class="subplot xy"><g class="layer-subplot"><g class="shapelayer"/><g class="imagelayer"/></g><g class="gridlayer"><g class="x"/><g class="y"><path class="ygrid crisp" transform="translate(0,370.77)" d="M80,0h390" style="stroke: rgb(255, 255, 255); stroke-opacity: 1; stroke-width: 1px;"/><path class="ygrid crisp" transform="translate(0,321.53999999999996)" d="M80,0h390" style="stroke: rgb(255, 255, 255); stroke-opacity: 1; stroke-width: 1px;"/><path class="ygrid crisp" transform="translate(0,272.31)" d="M80,0h390" style="stroke: rgb(255, 255, 255); stroke-opacity: 1; stroke-width: 1px;"/><path class="ygrid crisp" transform="translate(0,223.07999999999998)" d="M80,0h390" style="stroke: rgb(255, 255, 255); stroke-opacity: 1; stroke-width: 1px;"/><path class="ygrid crisp" transform="translate(0,173.85)" d="M80,0h390" style="stroke: rgb(255, 255, 255); stroke-opacity: 1; stroke-width: 1px;"/><path class="ygrid crisp" transform="translate(0,124.62)" d="M80,0h390" style="stroke: rgb(255, 255, 255); stroke-opacity: 1; stroke-width: 1px;"/></g></g><g class="zerolinelayer"><path class="xzl zl crisp" transform="translate(97.73,0)" d="M0,100v320" style="stroke: rgb(255, 255, 255); stroke-opacity: 1; stroke-width: 2px;"/></g><path class="xlines-below"/><path class="ylines-below"/><g class="overlines-below"/><g class="xaxislayer-below"/><g class="yaxislayer-below"/><g class="overaxes-below"/><g class="plot" transform="translate(80, 100)" clip-path="url('#clip1452daxyplot')"><g class="scatterlayer mlayer"><g class="trace scatter trace98a6ab" style="stroke-miterlimit: 2; opacity: 1;"><g class="fills"/><g class="errorbars"/><g class="lines"><path class="js-line" d="M17.73,223.74L21.31,144.81L24.89,108.79L28.47,90.28L32.05,81.4L35.63,71.27L39.21,66.02L42.8,66.12L46.38,58.31L53.54,50.46L57.12,49.2L60.7,49.1L64.28,46.58L67.87,41.49L71.45,40.69L75.03,42.99L78.61,44.22L82.19,40.16L85.77,40.83L89.35,34.61L92.93,32.82L96.52,37.37L100.1,36.51L103.68,32.29L107.26,33.68L114.42,29.26L118,30.16L121.58,29.59L125.17,30.09L128.75,27.8L132.33,28.1L135.91,25.97L139.49,26.7L143.07,26.5L146.65,24.74L157.4,24.24L160.98,23.11L164.56,20.85L168.14,21.68L171.72,22.12L175.3,21.15L178.88,19.72L182.47,19.62L186.05,20.19L189.63,18.26L193.21,18.56L196.79,17.66L200.37,17.6L203.95,15.1L207.53,17.1L211.12,16.37L221.86,13.48L225.44,15.5L229.02,13.41L232.6,14.47L236.18,12.11L239.77,13.64L243.35,10.78L246.93,12.01L250.51,11.32L254.09,11.78L261.25,12.28L264.83,9.06L286.32,8.86L289.9,7.56L300.65,6.9L304.23,7.53L318.55,6.06L322.13,6.76L325.72,6.2L329.3,6.5L332.88,5.7L336.46,6.53L343.62,5.3L347.2,6.3L357.95,6.16L361.53,5.8L368.69,6.36L372.27,5.83" style="vector-effect: non-scaling-stroke; fill: none; stroke: rgb(255, 204, 204); stroke-opacity: 1; stroke-width: 3px; opacity: 1;"/></g><g class="points"/><g class="text"/></g><g class="trace scatter trace313409" style="stroke-miterlimit: 2; opacity: 1;"><g class="fills"/><g class="errorbars"/><g class="lines"><path class="js-line" d="M17.73,157.06L21.31,106.97L24.89,90.54L28.47,71.4L32.05,61.18L35.63,55.59L39.21,54.05L42.8,49.58L46.38,48.34L49.96,42.25L53.54,41.69L57.12,39.07L60.7,37.72L64.28,36.89L67.87,37.01L71.45,36.27L75.03,36.41L78.61,35.16L82.19,35.58L85.77,35.31L89.35,33.42L92.93,30.88L96.52,30.83L100.1,29.17L103.68,30.79L107.26,29.12L110.84,30.06L114.42,29.64L118,28.22L121.58,28.36L125.17,27.62L128.75,27.79L132.33,26.1L139.49,26.55L143.07,25.88L146.65,27.61L150.23,24.83L157.4,26.78L160.98,25.33L168.14,23.34L171.72,21.39L175.3,23.48L178.88,21.66L186.05,23.33L189.63,21.65L200.37,19.25L203.95,19.65L211.12,19.98L214.7,17.86L218.28,16.81L221.86,17.09L229.02,18.23L232.6,17.14L239.77,15.94L243.35,16.15L246.93,15.12L250.51,16.58L254.09,15.15L257.67,16.35L261.25,14.27L264.83,14.58L268.42,15.29L272,14.6L279.16,14.84L282.74,14.23L304.23,12.9L307.81,13.4L340.04,13.43L343.62,12.74L357.95,12.34L361.53,12.42L368.69,13.16L372.27,12.23" style="vector-effect: non-scaling-stroke; fill: none; stroke: rgb(204, 102, 0); stroke-opacity: 1; stroke-width: 3px; opacity: 1;"/></g><g class="points"/><g class="text"/></g><g class="trace scatter trace1f63f5" style="stroke-miterlimit: 2; opacity: 1;"><g class="fills"/><g class="errorbars"/><g class="lines"><path class="js-line" d="M17.73,237L21.31,179.14L24.89,152.5L32.05,128.63L35.63,122.28L42.8,113.45L46.38,107.52L49.96,102.39L53.54,105.45L57.12,105.64L60.7,102.83L64.28,102.93L67.87,97.44L71.45,98.1L75.03,96.76L85.77,97.61L89.35,93.02L92.93,98.97L96.52,92.17L100.1,94.9L103.68,93L118,90.15L121.58,91.68L125.17,89.18L128.75,90.9L132.33,88.38L135.91,88.34L139.49,85.09L143.07,85.7L146.65,90.76L150.23,84.71L157.4,85.77L160.98,84L164.56,84.57L168.14,83.98L171.72,83.79L175.3,82.78L178.88,82L182.47,82.76L186.05,80.62L189.63,80.14L200.37,80.31L203.95,78.21L207.53,77.13L211.12,79.42L218.28,77.2L221.86,77.72L225.44,77.79L229.02,76.26L232.6,74.33L236.18,74.68L239.77,75.84L243.35,76.14L246.93,74.9L250.51,74.78L257.67,75.08L261.25,75.58L264.83,73.65L268.42,74.24L272,73.86L275.58,74.43L279.16,72.28L282.74,72.52L286.32,72.57L289.9,73.41L293.48,72.35L297.07,72.82L300.65,73.62L304.23,72.09L311.39,72.12L314.97,71.37L322.13,72.05L325.72,71.15L336.46,71.48L340.04,71.53L343.62,71.86L347.2,71.34L350.79,70.68L354.37,71.15L365.11,70.21L368.69,71.22L372.27,71.08" style="vector-effect: non-scaling-stroke; fill: none; stroke: rgb(0, 153, 153); stroke-opacity: 1; stroke-width: 3px; opacity: 1;"/></g><g class="points"/><g class="text"/></g><g class="trace scatter trace61c414" style="stroke-miterlimit: 2; opacity: 1;"><g class="fills"/><g class="errorbars"/><g class="lines"><path class="js-line" d="M17.73,197.7L21.31,146.78L24.89,125.22L32.05,107.51L35.63,106.61L39.21,99.19L42.8,99.96L46.38,95.48L49.96,94.35L53.54,90.61L57.12,92.5L60.7,93.45L64.28,90.27L67.87,88.42L71.45,88.6L82.19,84.82L85.77,84.26L89.35,85.22L92.93,84.35L96.52,85.47L100.1,81.8L103.68,84.86L107.26,82.21L110.84,83.04L114.42,82.14L118,83.6L121.58,82.52L128.75,82L132.33,78.33L143.07,81.06L146.65,78.47L150.23,79.19L153.82,78.28L160.98,79.95L164.56,79.68L168.14,77.74L171.72,80.22L178.88,80.63L182.47,78.13L186.05,78.22L189.63,77.23L193.21,77.43L196.79,76.37L200.37,77.14L203.95,73.1L207.53,75.42L211.12,73.91L214.7,74.36L218.28,73.85L221.86,74.36L225.44,73.46L236.18,73.73L239.77,70.96L243.35,71.77L246.93,70.74L250.51,72.02L254.09,70.87L257.67,69.9L261.25,69.97L264.83,68.03L268.42,70.6L275.58,69.72L279.16,68.64L286.32,68.6L289.9,68.17L297.07,68.87L300.65,69.84L307.81,67.29L311.39,67.81L314.97,67.72L318.55,68.78L322.13,68.08L325.72,68.28L332.88,68.42L336.46,68.66L340.04,67.61L343.62,68.12L347.2,67.72L350.79,68.19L357.95,68.26L361.53,68.1L365.11,68.62L368.69,67.7L372.27,68.51" style="vector-effect: non-scaling-stroke; fill: none; stroke: rgb(0, 102, 204); stroke-opacity: 1; stroke-width: 3px; opacity: 1;"/></g><g class="points"/><g class="text"/></g><g class="trace scatter tracea09072" style="stroke-miterlimit: 2; opacity: 1;"><g class="fills"/><g class="errorbars"/><g class="lines"><path class="js-line" d="M17.73,324.21L21.31,299.85L24.89,287.46L28.47,280.13L32.05,278.55L35.63,275.74L39.21,271.79L42.8,273.88L46.38,269.99L49.96,269.27L53.54,266.74L57.12,268.73L60.7,263.52L64.28,268L67.87,266.26L71.45,264.87L75.03,265.88L78.61,266.58L82.19,264.65L85.77,261.37L89.35,265.47L92.93,261.65L96.52,262.16L100.1,260.92L103.68,262.09L114.42,260.67L118,262.25L121.58,262.22L125.17,263.48L128.75,261.18L132.33,260.99L135.91,262.19L139.49,259.28L143.07,259.76L146.65,261.15L150.23,258.65L153.82,258.81L157.4,257.73L160.98,259.76L164.56,258.97L168.14,261.4L175.3,257.42L178.88,258.52L182.47,258.62L186.05,257.92L189.63,254.89L193.21,257.42L196.79,254.86L200.37,256.98L203.95,257.58L207.53,254.23L211.12,256.31L214.7,256.28L218.28,256.31L221.86,254.51L229.02,256.12L232.6,254.26L236.18,254.35L239.77,256L243.35,254.83L246.93,252.58L250.51,254.51L254.09,252.65L257.67,253.25L261.25,252.68L264.83,252.68L268.42,253.88L272,251.83L275.58,252.39L279.16,252.01L282.74,252.96L286.32,252.52L289.9,253.63L297.07,251.48L300.65,252.49L307.81,252.49L311.39,252.11L314.97,253.34L318.55,252.36L325.72,253.03L329.3,251.13L332.88,252.99L336.46,251.98L343.62,250.94L347.2,252.58L350.79,250.81L354.37,251.19L372.27,252.05" style="vector-effect: non-scaling-stroke; fill: none; stroke: rgb(153, 0, 153); stroke-opacity: 1; stroke-width: 3px; opacity: 1;"/></g><g class="points"/><g class="text"/></g><g class="trace scatter trace0940b8" style="stroke-miterlimit: 2; opacity: 1;"><g class="fills"/><g class="errorbars"/><g class="lines"><path class="js-line" d="M17.73,361.05L23.74,342.97L29.75,338.5L35.76,327.12L41.76,327.55L47.77,318.62L53.78,316.96L59.79,315.75L65.8,311.41L89.84,302.7L95.85,303.91L101.86,306.51L107.87,302.29L113.88,301.53L119.88,301.93L125.89,299.75L131.9,299.01L137.91,299.68L143.92,297.24L149.93,296.3L155.94,298.04L161.95,299.8L167.96,295.71L173.97,292.49L179.98,290.14L185.99,291.41L192,294.26L198,293.3L204.01,295.68L210.02,295.61L216.03,291.08L222.04,293.69L228.05,293.18L240.07,291.27L246.08,291.38L252.09,289.95L258.1,290.33L264.11,290.75L270.12,290.12L288.14,290.3L294.15,289.01L300.16,289.79L306.17,289.15L324.2,289.04L330.21,289.66L354.24,289.81L360.25,290.01L372.27,290.41" style="vector-effect: non-scaling-stroke; fill: none; stroke: rgb(64, 64, 64); stroke-opacity: 1; stroke-width: 3px; opacity: 1;"/></g><g class="points"/><g class="text"/></g></g></g><g class="overplot"/><path class="xlines-above crisp" d="" style="fill: none; stroke-width: 1px; stroke: rgb(0, 0, 0); stroke-opacity: 0;"/><path class="ylines-above crisp" d="M0,0" style="fill: none;"/><g class="overlines-above"/><g class="xaxislayer-above"><path class="xtick ticks crisp" d="M0,420v-5" transform="translate(97.73,0)" style="stroke: rgb(68, 68, 68); stroke-opacity: 1; stroke-width: 1px;"/><path class="xtick ticks crisp" d="M0,420v-5" transform="translate(168.64,0)" style="stroke: rgb(68, 68, 68); stroke-opacity: 1; stroke-width: 1px;"/><path class="xtick ticks crisp" d="M0,420v-5" transform="translate(239.55,0)" style="stroke: rgb(68, 68, 68); stroke-opacity: 1; stroke-width: 1px;"/><path class="xtick ticks crisp" d="M0,420v-5" transform="translate(310.45,0)" style="stroke: rgb(68, 68, 68); stroke-opacity: 1; stroke-width: 1px;"/><path class="xtick ticks crisp" d="M0,420v-5" transform="translate(381.36,0)" style="stroke: rgb(68, 68, 68); stroke-opacity: 1; stroke-width: 1px;"/><path class="xtick ticks crisp" d="M0,420v-5" transform="translate(452.27,0)" style="stroke: rgb(68, 68, 68); stroke-opacity: 1; stroke-width: 1px;"/><g class="xtick"><text text-anchor="middle" x="0" y="433" transform="translate(97.73,0)" style="font-family: 'Open Sans', verdana, arial, sans-serif; font-size: 12px; fill: rgb(42, 63, 95); fill-opacity: 1; white-space: pre;">0</text></g><g class="xtick"><text text-anchor="middle" x="0" y="433" transform="translate(168.64,0)" style="font-family: 'Open Sans', verdana, arial, sans-serif; font-size: 12px; fill: rgb(42, 63, 95); fill-opacity: 1; white-space: pre;">0.2</text></g><g class="xtick"><text text-anchor="middle" x="0" y="433" transform="translate(239.55,0)" style="font-family: 'Open Sans', verdana, arial, sans-serif; font-size: 12px; fill: rgb(42, 63, 95); fill-opacity: 1; white-space: pre;">0.4</text></g><g class="xtick"><text text-anchor="middle" x="0" y="433" transform="translate(310.45,0)" style="font-family: 'Open Sans', verdana, arial, sans-serif; font-size: 12px; fill: rgb(42, 63, 95); fill-opacity: 1; white-space: pre;">0.6</text></g><g class="xtick"><text text-anchor="middle" x="0" y="433" transform="translate(381.36,0)" style="font-family: 'Open Sans', verdana, arial, sans-serif; font-size: 12px; fill: rgb(42, 63, 95); fill-opacity: 1; white-space: pre;">0.8</text></g><g class="xtick"><text text-anchor="middle" x="0" y="433" transform="translate(452.27,0)" style="font-family: 'Open Sans', verdana, arial, sans-serif; font-size: 12px; fill: rgb(42, 63, 95); fill-opacity: 1; white-space: pre;">1</text></g></g><g class="yaxislayer-above"><g class="ytick"><text text-anchor="end" x="79" y="4.199999999999999" transform="translate(0,420)" style="font-family: 'Open Sans', verdana, arial, sans-serif; font-size: 12px; fill: rgb(42, 63, 95); fill-opacity: 1; white-space: pre;">10%</text></g><g class="ytick"><text text-anchor="end" x="79" y="4.199999999999999" transform="translate(0,370.77)" style="font-family: 'Open Sans', verdana, arial, sans-serif; font-size: 12px; fill: rgb(42, 63, 95); fill-opacity: 1; white-space: pre;">20%</text></g><g class="ytick"><text text-anchor="end" x="79" y="4.199999999999999" transform="translate(0,321.53999999999996)" style="font-family: 'Open Sans', verdana, arial, sans-serif; font-size: 12px; fill: rgb(42, 63, 95); fill-opacity: 1; white-space: pre;">30%</text></g><g class="ytick"><text text-anchor="end" x="79" y="4.199999999999999" transform="translate(0,272.31)" style="font-family: 'Open Sans', verdana, arial, sans-serif; font-size: 12px; fill: rgb(42, 63, 95); fill-opacity: 1; white-space: pre;">40%</text></g><g class="ytick"><text text-anchor="end" x="79" y="4.199999999999999" transform="translate(0,223.07999999999998)" style="font-family: 'Open Sans', verdana, arial, sans-serif; font-size: 12px; fill: rgb(42, 63, 95); fill-opacity: 1; white-space: pre;">50%</text></g><g class="ytick"><text text-anchor="end" x="79" y="4.199999999999999" transform="translate(0,173.85)" style="font-family: 'Open Sans', verdana, arial, sans-serif; font-size: 12px; fill: rgb(42, 63, 95); fill-opacity: 1; white-space: pre;">60%</text></g><g class="ytick"><text text-anchor="end" x="79" y="4.199999999999999" transform="translate(0,124.62)" style="font-family: 'Open Sans', verdana, arial, sans-serif; font-size: 12px; fill: rgb(42, 63, 95); fill-opacity: 1; white-space: pre;">70%</text></g></g><g class="overaxes-above"/></g></g><g class="polarlayer"/><g class="ternarylayer"/><g class="geolayer"/><g class="funnelarealayer"/><g class="pielayer"/><g class="treemaplayer"/><g class="sunburstlayer"/><g class="glimages"/><defs id="topdefs-1452da"><g class="clips"/><clipPath id="legend1452da"><rect width="108.6" height="145.6" x="2.2" y="2.2"/></clipPath></defs><g class="layer-above"><g class="imagelayer"/><g class="shapelayer"/></g><g class="infolayer"><g class="legend" pointer-events="all" transform="translate(327.7, 185)"><rect class="bg" shape-rendering="crispEdges" width="110.8" height="147.8" x="1.1" y="1.1" style="stroke: rgb(147, 112, 219); stroke-opacity: 1; fill: rgb(255, 255, 255); fill-opacity: 1; stroke-width: 2.2px;"/><g class="scrollbox" transform="translate(0, 0)" clip-path="url('#legend1452da')"><g class="groups"><g class="traces" transform="translate(2.2, 18.45)" style="opacity: 1;"><text class="legendtext user-select-none" text-anchor="start" x="40" y="5.85" style="font-family: 'Times New Roman'; font-size: 15px; fill: rgb(42, 63, 95); fill-opacity: 1; white-space: pre;">clipart</text><g class="layers" style="opacity: 1;"><g class="legendfill"/><g class="legendlines"><path class="js-line" d="M5,0h30" style="fill: none; stroke: rgb(255, 204, 204); stroke-opacity: 1; stroke-width: 3px;"/></g><g class="legendsymbols"><g class="legendpoints"/></g></g><rect class="legendtoggle" pointer-events="all" x="0" y="-11.25" width="103.46875" height="22.5" style="cursor: pointer; fill: rgb(0, 0, 0); fill-opacity: 0;"/></g><g class="traces" transform="translate(2.2, 40.95)" style="opacity: 1;"><text class="legendtext user-select-none" text-anchor="start" x="40" y="5.85" style="font-family: 'Times New Roman'; font-size: 15px; fill: rgb(42, 63, 95); fill-opacity: 1; white-space: pre;">real</text><g class="layers" style="opacity: 1;"><g class="legendfill"/><g class="legendlines"><path class="js-line" d="M5,0h30" style="fill: none; stroke: rgb(204, 102, 0); stroke-opacity: 1; stroke-width: 3px;"/></g><g class="legendsymbols"><g class="legendpoints"/></g></g><rect class="legendtoggle" pointer-events="all" x="0" y="-11.25" width="103.46875" height="22.5" style="cursor: pointer; fill: rgb(0, 0, 0); fill-opacity: 0;"/></g><g class="traces" transform="translate(2.2, 63.45)" style="opacity: 1;"><text class="legendtext user-select-none" text-anchor="start" x="40" y="5.85" style="font-family: 'Times New Roman'; font-size: 15px; fill: rgb(42, 63, 95); fill-opacity: 1; white-space: pre;">sketch</text><g class="layers" style="opacity: 1;"><g class="legendfill"/><g class="legendlines"><path class="js-line" d="M5,0h30" style="fill: none; stroke: rgb(0, 153, 153); stroke-opacity: 1; stroke-width: 3px;"/></g><g class="legendsymbols"><g class="legendpoints"/></g></g><rect class="legendtoggle" pointer-events="all" x="0" y="-11.25" width="103.46875" height="22.5" style="cursor: pointer; fill: rgb(0, 0, 0); fill-opacity: 0;"/></g><g class="traces" transform="translate(2.2, 85.95)" style="opacity: 1;"><text class="legendtext user-select-none" text-anchor="start" x="40" y="5.85" style="font-family: 'Times New Roman'; font-size: 15px; fill: rgb(42, 63, 95); fill-opacity: 1; white-space: pre;">painting</text><g class="layers" style="opacity: 1;"><g class="legendfill"/><g class="legendlines"><path class="js-line" d="M5,0h30" style="fill: none; stroke: rgb(0, 102, 204); stroke-opacity: 1; stroke-width: 3px;"/></g><g class="legendsymbols"><g class="legendpoints"/></g></g><rect class="legendtoggle" pointer-events="all" x="0" y="-11.25" width="103.46875" height="22.5" style="cursor: pointer; fill: rgb(0, 0, 0); fill-opacity: 0;"/></g><g class="traces" transform="translate(2.2, 108.45)" style="opacity: 1;"><text class="legendtext user-select-none" text-anchor="start" x="40" y="5.85" style="font-family: 'Times New Roman'; font-size: 15px; fill: rgb(42, 63, 95); fill-opacity: 1; white-space: pre;">infograph</text><g class="layers" style="opacity: 1;"><g class="legendfill"/><g class="legendlines"><path class="js-line" d="M5,0h30" style="fill: none; stroke: rgb(153, 0, 153); stroke-opacity: 1; stroke-width: 3px;"/></g><g class="legendsymbols"><g class="legendpoints"/></g></g><rect class="legendtoggle" pointer-events="all" x="0" y="-11.25" width="103.46875" height="22.5" style="cursor: pointer; fill: rgb(0, 0, 0); fill-opacity: 0;"/></g><g class="traces" transform="translate(2.2, 130.95)" style="opacity: 1;"><text class="legendtext user-select-none" text-anchor="start" x="40" y="5.85" style="font-family: 'Times New Roman'; font-size: 15px; fill: rgb(42, 63, 95); fill-opacity: 1; white-space: pre;">quickdraw</text><g class="layers" style="opacity: 1;"><g class="legendfill"/><g class="legendlines"><path class="js-line" d="M5,0h30" style="fill: none; stroke: rgb(64, 64, 64); stroke-opacity: 1; stroke-width: 3px;"/></g><g class="legendsymbols"><g class="legendpoints"/></g></g><rect class="legendtoggle" pointer-events="all" x="0" y="-11.25" width="103.46875" height="22.5" style="cursor: pointer; fill: rgb(0, 0, 0); fill-opacity: 0;"/></g></g></g><rect class="scrollbar" rx="20" ry="3" width="0" height="0" x="0" y="0" style="fill: rgb(128, 139, 164); fill-opacity: 1;"/></g><g class="g-gtitle"/><g class="g-xtitle"><text class="xtitle" x="275" y="465" text-anchor="middle" style="font-family: 'Times New Roman'; font-size: 20px; fill: rgb(42, 63, 95); opacity: 1; font-weight: normal; white-space: pre;">Training Process (<tspan style="font-style:italic">t/t​<tspan style="font-size:70%" dy="0.3em">max</tspan><tspan dy="-0.21em">​</tspan> </tspan>)</text></g><g class="g-ytitle"><text class="ytitle" transform="rotate(-90,21.828125,260)" x="21.828125" y="260" text-anchor="middle" style="font-family: 'Times New Roman'; font-size: 20px; fill: rgb(42, 63, 95); opacity: 1; font-weight: normal; white-space: pre;">Top-1 accuracy</text></g></g></svg>