<svg class="main-svg" xmlns="http://www.w3.org/2000/svg" xmlns:xlink="http://www.w3.org/1999/xlink" width="550" height="500" viewBox="0 0 550 500"><rect x="0" y="0" width="550" height="500" style="fill: rgb(255, 255, 255); fill-opacity: 1;"/><defs id="defs-0b0df4"><g class="clips"><clipPath id="clip0b0df4xyplot" class="plotclip"><rect width="390" height="320"/></clipPath><clipPath class="axesclip" id="clip0b0df4x"><rect x="80" y="0" width="390" height="500"/></clipPath><clipPath class="axesclip" id="clip0b0df4y"><rect x="0" y="100" width="550" height="320"/></clipPath><clipPath class="axesclip" id="clip0b0df4xy"><rect x="80" y="100" width="390" height="320"/></clipPath></g><g class="gradients"/></defs><g class="bglayer"><rect class="bg" x="80" y="100" width="390" height="320" style="fill: rgb(229, 236, 246); fill-opacity: 1; stroke-width: 0;"/></g><g class="layer-below"><g class="imagelayer"/><g class="shapelayer"/></g><g class="cartesianlayer"><g class="subplot xy"><g class="layer-subplot"><g class="shapelayer"/><g class="imagelayer"/></g><g class="gridlayer"><g class="x"/><g class="y"><path class="ygrid crisp" transform="translate(0,375.56)" d="M80,0h390" style="stroke: rgb(255, 255, 255); stroke-opacity: 1; stroke-width: 1px;"/><path class="ygrid crisp" transform="translate(0,331.11)" d="M80,0h390" style="stroke: rgb(255, 255, 255); stroke-opacity: 1; stroke-width: 1px;"/><path class="ygrid crisp" transform="translate(0,286.66999999999996)" d="M80,0h390" style="stroke: rgb(255, 255, 255); stroke-opacity: 1; stroke-width: 1px;"/><path class="ygrid crisp" transform="translate(0,242.22)" d="M80,0h390" style="stroke: rgb(255, 255, 255); stroke-opacity: 1; stroke-width: 1px;"/><path class="ygrid crisp" transform="translate(0,197.78)" d="M80,0h390" style="stroke: rgb(255, 255, 255); stroke-opacity: 1; stroke-width: 1px;"/><path class="ygrid crisp" transform="translate(0,153.32999999999998)" d="M80,0h390" style="stroke: rgb(255, 255, 255); stroke-opacity: 1; stroke-width: 1px;"/><path class="ygrid crisp" transform="translate(0,108.89)" d="M80,0h390" style="stroke: rgb(255, 255, 255); stroke-opacity: 1; stroke-width: 1px;"/></g></g><g class="zerolinelayer"><path class="xzl zl crisp" transform="translate(97.73,0)" d="M0,100v320" style="stroke: rgb(255, 255, 255); stroke-opacity: 1; stroke-width: 2px;"/></g><path class="xlines-below"/><path class="ylines-below"/><g class="overlines-below"/><g class="xaxislayer-below"/><g class="yaxislayer-below"/><g class="overaxes-below"/><g class="plot" transform="translate(80, 100)" clip-path="url('#clip0b0df4xyplot')"><g class="scatterlayer mlayer"><g class="trace scatter tracee37bdd" style="stroke-miterlimit: 2; opacity: 1;"><g class="fills"/><g class="errorbars"/><g class="lines"><path class="js-line" d="M17.73,204.91L21.31,120.57L24.89,83.76L28.47,70.38L32.05,62.61L35.63,54.81L39.21,48.99L42.8,49.98L46.38,44.49L49.96,43.5L53.54,39.27L57.12,38.1L60.7,37.8L64.28,34.71L67.87,34.2L78.61,33.15L82.19,31.77L85.77,31.74L89.35,30.21L92.93,27.72L96.52,28.68L107.26,27.48L110.84,26.34L114.42,24.78L118,26.46L125.17,25.41L128.75,25.47L135.91,22.83L139.49,23.55L146.65,22.35L150.23,22.98L153.82,21.51L157.4,23.22L164.56,21.9L168.14,22.59L171.72,21.12L175.3,21.03L182.47,19.68L186.05,19.95L200.37,19.23L203.95,18.24L211.12,18.54L214.7,16.23L218.28,17.19L221.86,16.95L225.44,16.74L229.02,17.31L254.09,14.79L257.67,15.24L264.83,14.25L268.42,15.06L275.58,13.95L279.16,13.8L289.9,13.2L293.48,13.05L300.65,12.66L304.23,12.63L311.39,12.84L314.97,12L322.13,12.03L325.72,11.94L329.3,12.33L332.88,11.94L365.11,12L368.69,11.73L372.27,11.91" style="vector-effect: non-scaling-stroke; fill: none; stroke: rgb(255, 204, 204); stroke-opacity: 1; stroke-width: 3px; opacity: 1;"/></g><g class="points"/><g class="text"/></g><g class="trace scatter tracec5226b" style="stroke-miterlimit: 2; opacity: 1;"><g class="fills"/><g class="errorbars"/><g class="lines"><path class="js-line" d="M17.73,132.97L21.31,86.05L24.89,66.63L28.47,51.41L32.05,39.74L35.63,39.36L39.21,36.63L42.8,31.46L46.38,29.73L49.96,28.33L53.54,28.97L57.12,25.49L60.7,25.68L64.28,25.9L67.87,24.81L71.45,25.35L75.03,24.56L82.19,23.81L85.77,25.14L92.93,22.73L96.52,22.2L107.26,20.55L110.84,21.04L114.42,22.19L118,20.54L121.58,20.69L125.17,20.05L128.75,21.52L132.33,19.86L143.07,19.67L146.65,20.25L150.23,20.02L153.82,18.91L157.4,19.85L160.98,19.75L164.56,18.46L168.14,19.09L171.72,18.22L175.3,19.56L182.47,17.32L186.05,18.19L189.63,17.62L193.21,17.88L203.95,17.36L207.53,17.36L221.86,15.69L225.44,16.1L232.6,15.84L236.18,15.53L239.77,15L243.35,15.52L268.42,15.02L272,14.53L275.58,15.19L279.16,14.75L286.32,14.62L289.9,14.76L304.23,14.35L307.81,14.46L343.62,13.94L347.2,14.01L357.95,13.43L361.53,14.35L372.27,13.53" style="vector-effect: non-scaling-stroke; fill: none; stroke: rgb(204, 102, 0); stroke-opacity: 1; stroke-width: 3px; opacity: 1;"/></g><g class="points"/><g class="text"/></g><g class="trace scatter trace8929d6" style="stroke-miterlimit: 2; opacity: 1;"><g class="fills"/><g class="errorbars"/><g class="lines"><path class="js-line" d="M17.73,224.74L21.31,155.94L24.89,129.97L28.47,117.22L32.05,108.22L35.63,100.01L39.21,99.04L42.8,96.25L46.38,89.88L49.96,86.54L53.54,87.46L60.7,84.95L64.28,86.44L67.87,80.78L71.45,80.87L75.03,82.82L78.61,82.48L82.19,80.32L85.77,80.91L89.35,78.11L92.93,80.63L96.52,78.96L100.1,80.36L103.68,78.3L107.26,78.23L110.84,78.72L114.42,78.04L118,75.28L121.58,76.28L128.75,76.75L132.33,74.28L135.91,76L139.49,74.62L143.07,73.3L146.65,75.62L150.23,73.66L153.82,73.15L157.4,73.94L160.98,71.86L168.14,73.13L171.72,70.52L175.3,71.2L178.88,69.82L182.47,69.99L186.05,68.86L193.21,69.58L196.79,68.48L203.95,68.29L207.53,66.52L211.12,67.88L214.7,67.57L225.44,66.48L229.02,66.65L232.6,64.78L236.18,65.59L243.35,66.8L246.93,65.23L250.51,64.85L254.09,65.29L261.25,65.36L264.83,65.21L268.42,65.61L272,65.04L279.16,65.06L282.74,64.89L289.9,64.65L293.48,64.65L300.65,65.16L304.23,63.59L322.13,65.27L325.72,64L329.3,63.61L332.88,64.06L336.46,63.46L340.04,63.87L343.62,64.27L347.2,63.7L357.95,63.87L361.53,63.8L368.69,63.25L372.27,64.44" style="vector-effect: non-scaling-stroke; fill: none; stroke: rgb(0, 153, 153); stroke-opacity: 1; stroke-width: 3px; opacity: 1;"/></g><g class="points"/><g class="text"/></g><g class="trace scatter trace83b543" style="stroke-miterlimit: 2; opacity: 1;"><g class="fills"/><g class="errorbars"/><g class="lines"><path class="js-line" d="M17.73,184.86L21.31,125.91L24.89,108.66L28.47,98.37L32.05,91.13L35.63,87.02L39.21,81.12L42.8,81.51L46.38,80.04L53.54,75.61L57.12,75.71L60.7,76.46L64.28,71.84L67.87,70.28L71.45,72.92L75.03,70.26L78.61,70.79L82.19,69.02L85.77,71.97L89.35,71.72L92.93,70.36L100.1,69.54L103.68,70.42L110.84,68.51L114.42,69L118,67.1L121.58,66.94L125.17,68.85L128.75,66.84L132.33,68.04L135.91,66.31L139.49,66.35L143.07,67.43L146.65,65.94L150.23,66.01L153.82,67.57L157.4,64.56L160.98,68.51L164.56,66.17L168.14,64.38L171.72,68.3L178.88,64.48L182.47,65.86L186.05,66.25L189.63,65.46L193.21,65.09L196.79,63.61L200.37,63.59L203.95,61.41L207.53,62.34L211.12,62.49L214.7,60.96L218.28,62.55L225.44,60.94L229.02,61.08L232.6,62.32L236.18,61.1L254.09,61.1L257.67,60.33L264.83,58.38L268.42,59.98L272,60.88L275.58,58.93L279.16,59.74L282.74,59.5L293.48,59.13L297.07,58.28L300.65,59.76L304.23,58.38L311.39,58.15L314.97,58.72L318.55,59.27L322.13,58.44L329.3,59.19L332.88,58.07L336.46,59.01L340.04,58.07L343.62,58.83L347.2,58.4L354.37,59.11L357.95,58.19L368.69,58.66L372.27,58.52" style="vector-effect: non-scaling-stroke; fill: none; stroke: rgb(0, 102, 204); stroke-opacity: 1; stroke-width: 3px; opacity: 1;"/></g><g class="points"/><g class="text"/></g><g class="trace scatter trace7cf913" style="stroke-miterlimit: 2; opacity: 1;"><g class="fills"/><g class="errorbars"/><g class="lines"><path class="js-line" d="M17.73,337.75L21.31,300.33L24.89,288.55L28.47,279.02L32.05,276.37L39.21,265.93L42.8,266.45L49.96,259.66L53.54,260.23L57.12,261.28L60.7,256.26L64.28,262.91L67.87,259.06L71.45,256.55L75.03,258.63L78.61,259.6L82.19,256.86L85.77,255.41L89.35,255.95L92.93,254.38L96.52,255.01L100.1,251.61L103.68,253.98L107.26,254.24L110.84,252.64L114.42,252.75L118,253.7L121.58,254.89L125.17,257.69L128.75,254.12L132.33,255.69L135.91,256.12L139.49,251.58L143.07,251.76L146.65,254.32L150.23,252.16L153.82,253.27L157.4,250.73L160.98,251.9L164.56,251.56L168.14,253.27L175.3,251.27L178.88,252.18L182.47,250.99L186.05,250.87L189.63,248.25L193.21,251.01L196.79,247.48L200.37,251.39L203.95,250.93L207.53,248.42L211.12,250.67L214.7,249.16L218.28,249.1L221.86,249.82L229.02,250.07L232.6,248.73L236.18,248.08L239.77,249.93L246.93,247.22L250.51,248.13L257.67,247.05L261.25,248.13L268.42,249.13L272,246.62L275.58,247.91L279.16,247.53L282.74,247.19L286.32,247.85L289.9,248.28L293.48,247.05L297.07,246.22L300.65,247.33L314.97,246.74L318.55,245.77L329.3,245L332.88,245.79L343.62,244.65L347.2,246.88L350.79,244.51L354.37,244.08L361.53,245.11L365.11,245.22L372.27,245.91" style="vector-effect: non-scaling-stroke; fill: none; stroke: rgb(153, 0, 153); stroke-opacity: 1; stroke-width: 3px; opacity: 1;"/></g><g class="points"/><g class="text"/></g><g class="trace scatter trace72ded3" style="stroke-miterlimit: 2; opacity: 1;"><g class="fills"/><g class="errorbars"/><g class="lines"><path class="js-line" d="M17.73,391.21L23.74,367.12L29.75,353.76L35.76,330.43L41.76,327.04L47.77,317.63L53.78,310.78L59.79,308.32L65.8,304.03L71.81,299.1L77.82,296.04L89.84,290.83L95.85,291.41L101.86,290.93L107.87,287.64L113.88,286.19L119.88,288.15L125.89,284.64L131.9,282.09L149.93,279.76L155.94,281.95L161.95,280.92L167.96,278.29L173.97,273.37L179.98,273.15L185.99,272.27L192,278.27L198,274.34L204.01,278.29L210.02,278.15L216.03,273.49L222.04,274.83L228.05,275.13L234.06,274.48L240.07,275.27L252.09,272.83L258.1,273.36L282.13,272.01L288.14,272.21L294.15,271.05L300.16,271.85L318.19,270.82L324.2,270.91L330.21,271.56L336.22,271.29L372.27,272.58" style="vector-effect: non-scaling-stroke; fill: none; stroke: rgb(64, 64, 64); stroke-opacity: 1; stroke-width: 3px; opacity: 1;"/></g><g class="points"/><g class="text"/></g></g></g><g class="overplot"/><path class="xlines-above crisp" d="" style="fill: none; stroke-width: 1px; stroke: rgb(0, 0, 0); stroke-opacity: 0;"/><path class="ylines-above crisp" d="M0,0" style="fill: none;"/><g class="overlines-above"/><g class="xaxislayer-above"><path class="xtick ticks crisp" d="M0,420v-5" transform="translate(97.73,0)" style="stroke: rgb(68, 68, 68); stroke-opacity: 1; stroke-width: 1px;"/><path class="xtick ticks crisp" d="M0,420v-5" transform="translate(168.64,0)" style="stroke: rgb(68, 68, 68); stroke-opacity: 1; stroke-width: 1px;"/><path class="xtick ticks crisp" d="M0,420v-5" transform="translate(239.55,0)" style="stroke: rgb(68, 68, 68); stroke-opacity: 1; stroke-width: 1px;"/><path class="xtick ticks crisp" d="M0,420v-5" transform="translate(310.45,0)" style="stroke: rgb(68, 68, 68); stroke-opacity: 1; stroke-width: 1px;"/><path class="xtick ticks crisp" d="M0,420v-5" transform="translate(381.36,0)" style="stroke: rgb(68, 68, 68); stroke-opacity: 1; stroke-width: 1px;"/><path class="xtick ticks crisp" d="M0,420v-5" transform="translate(452.27,0)" style="stroke: rgb(68, 68, 68); stroke-opacity: 1; stroke-width: 1px;"/><g class="xtick"><text text-anchor="middle" x="0" y="433" transform="translate(97.73,0)" style="font-family: 'Open Sans', verdana, arial, sans-serif; font-size: 12px; fill: rgb(42, 63, 95); fill-opacity: 1; white-space: pre;">0</text></g><g class="xtick"><text text-anchor="middle" x="0" y="433" transform="translate(168.64,0)" style="font-family: 'Open Sans', verdana, arial, sans-serif; font-size: 12px; fill: rgb(42, 63, 95); fill-opacity: 1; white-space: pre;">0.2</text></g><g class="xtick"><text text-anchor="middle" x="0" y="433" transform="translate(239.55,0)" style="font-family: 'Open Sans', verdana, arial, sans-serif; font-size: 12px; fill: rgb(42, 63, 95); fill-opacity: 1; white-space: pre;">0.4</text></g><g class="xtick"><text text-anchor="middle" x="0" y="433" transform="translate(310.45,0)" style="font-family: 'Open Sans', verdana, arial, sans-serif; font-size: 12px; fill: rgb(42, 63, 95); fill-opacity: 1; white-space: pre;">0.6</text></g><g class="xtick"><text text-anchor="middle" x="0" y="433" transform="translate(381.36,0)" style="font-family: 'Open Sans', verdana, arial, sans-serif; font-size: 12px; fill: rgb(42, 63, 95); fill-opacity: 1; white-space: pre;">0.8</text></g><g class="xtick"><text text-anchor="middle" x="0" y="433" transform="translate(452.27,0)" style="font-family: 'Open Sans', verdana, arial, sans-serif; font-size: 12px; fill: rgb(42, 63, 95); fill-opacity: 1; white-space: pre;">1</text></g></g><g class="yaxislayer-above"><g class="ytick"><text text-anchor="end" x="79" y="4.199999999999999" transform="translate(0,420)" style="font-family: 'Open Sans', verdana, arial, sans-serif; font-size: 12px; fill: rgb(42, 63, 95); fill-opacity: 1; white-space: pre;">20%</text></g><g class="ytick"><text text-anchor="end" x="79" y="4.199999999999999" transform="translate(0,375.56)" style="font-family: 'Open Sans', verdana, arial, sans-serif; font-size: 12px; fill: rgb(42, 63, 95); fill-opacity: 1; white-space: pre;">30%</text></g><g class="ytick"><text text-anchor="end" x="79" y="4.199999999999999" transform="translate(0,331.11)" style="font-family: 'Open Sans', verdana, arial, sans-serif; font-size: 12px; fill: rgb(42, 63, 95); fill-opacity: 1; white-space: pre;">40%</text></g><g class="ytick"><text text-anchor="end" x="79" y="4.199999999999999" transform="translate(0,286.66999999999996)" style="font-family: 'Open Sans', verdana, arial, sans-serif; font-size: 12px; fill: rgb(42, 63, 95); fill-opacity: 1; white-space: pre;">50%</text></g><g class="ytick"><text text-anchor="end" x="79" y="4.199999999999999" transform="translate(0,242.22)" style="font-family: 'Open Sans', verdana, arial, sans-serif; font-size: 12px; fill: rgb(42, 63, 95); fill-opacity: 1; white-space: pre;">60%</text></g><g class="ytick"><text text-anchor="end" x="79" y="4.199999999999999" transform="translate(0,197.78)" style="font-family: 'Open Sans', verdana, arial, sans-serif; font-size: 12px; fill: rgb(42, 63, 95); fill-opacity: 1; white-space: pre;">70%</text></g><g class="ytick"><text text-anchor="end" x="79" y="4.199999999999999" transform="translate(0,153.32999999999998)" style="font-family: 'Open Sans', verdana, arial, sans-serif; font-size: 12px; fill: rgb(42, 63, 95); fill-opacity: 1; white-space: pre;">80%</text></g><g class="ytick"><text text-anchor="end" x="79" y="4.199999999999999" transform="translate(0,108.89)" style="font-family: 'Open Sans', verdana, arial, sans-serif; font-size: 12px; fill: rgb(42, 63, 95); fill-opacity: 1; white-space: pre;">90%</text></g></g><g class="overaxes-above"/></g></g><g class="polarlayer"/><g class="ternarylayer"/><g class="geolayer"/><g class="funnelarealayer"/><g class="pielayer"/><g class="treemaplayer"/><g class="sunburstlayer"/><g class="glimages"/><defs id="topdefs-0b0df4"><g class="clips"/><clipPath id="legend0b0df4"><rect width="108.6" height="145.6" x="2.2" y="2.2"/></clipPath></defs><g class="layer-above"><g class="imagelayer"/><g class="shapelayer"/></g><g class="infolayer"><g class="legend" pointer-events="all" transform="translate(327.7, 178.6)"><rect class="bg" shape-rendering="crispEdges" width="110.8" height="147.8" x="1.1" y="1.1" style="stroke: rgb(147, 112, 219); stroke-opacity: 1; fill: rgb(255, 255, 255); fill-opacity: 1; stroke-width: 2.2px;"/><g class="scrollbox" transform="translate(0, 0)" clip-path="url('#legend0b0df4')"><g class="groups"><g class="traces" transform="translate(2.2, 18.45)" style="opacity: 1;"><text class="legendtext user-select-none" text-anchor="start" x="40" y="5.85" style="font-family: 'Times New Roman'; font-size: 15px; fill: rgb(42, 63, 95); fill-opacity: 1; white-space: pre;">clipart</text><g class="layers" style="opacity: 1;"><g class="legendfill"/><g class="legendlines"><path class="js-line" d="M5,0h30" style="fill: none; stroke: rgb(255, 204, 204); stroke-opacity: 1; stroke-width: 3px;"/></g><g class="legendsymbols"><g class="legendpoints"/></g></g><rect class="legendtoggle" pointer-events="all" x="0" y="-11.25" width="103.46875" height="22.5" style="cursor: pointer; fill: rgb(0, 0, 0); fill-opacity: 0;"/></g><g class="traces" transform="translate(2.2, 40.95)" style="opacity: 1;"><text class="legendtext user-select-none" text-anchor="start" x="40" y="5.85" style="font-family: 'Times New Roman'; font-size: 15px; fill: rgb(42, 63, 95); fill-opacity: 1; white-space: pre;">real</text><g class="layers" style="opacity: 1;"><g class="legendfill"/><g class="legendlines"><path class="js-line" d="M5,0h30" style="fill: none; stroke: rgb(204, 102, 0); stroke-opacity: 1; stroke-width: 3px;"/></g><g class="legendsymbols"><g class="legendpoints"/></g></g><rect class="legendtoggle" pointer-events="all" x="0" y="-11.25" width="103.46875" height="22.5" style="cursor: pointer; fill: rgb(0, 0, 0); fill-opacity: 0;"/></g><g class="traces" transform="translate(2.2, 63.45)" style="opacity: 1;"><text class="legendtext user-select-none" text-anchor="start" x="40" y="5.85" style="font-family: 'Times New Roman'; font-size: 15px; fill: rgb(42, 63, 95); fill-opacity: 1; white-space: pre;">sketch</text><g class="layers" style="opacity: 1;"><g class="legendfill"/><g class="legendlines"><path class="js-line" d="M5,0h30" style="fill: none; stroke: rgb(0, 153, 153); stroke-opacity: 1; stroke-width: 3px;"/></g><g class="legendsymbols"><g class="legendpoints"/></g></g><rect class="legendtoggle" pointer-events="all" x="0" y="-11.25" width="103.46875" height="22.5" style="cursor: pointer; fill: rgb(0, 0, 0); fill-opacity: 0;"/></g><g class="traces" transform="translate(2.2, 85.95)" style="opacity: 1;"><text class="legendtext user-select-none" text-anchor="start" x="40" y="5.85" style="font-family: 'Times New Roman'; font-size: 15px; fill: rgb(42, 63, 95); fill-opacity: 1; white-space: pre;">painting</text><g class="layers" style="opacity: 1;"><g class="legendfill"/><g class="legendlines"><path class="js-line" d="M5,0h30" style="fill: none; stroke: rgb(0, 102, 204); stroke-opacity: 1; stroke-width: 3px;"/></g><g class="legendsymbols"><g class="legendpoints"/></g></g><rect class="legendtoggle" pointer-events="all" x="0" y="-11.25" width="103.46875" height="22.5" style="cursor: pointer; fill: rgb(0, 0, 0); fill-opacity: 0;"/></g><g class="traces" transform="translate(2.2, 108.45)" style="opacity: 1;"><text class="legendtext user-select-none" text-anchor="start" x="40" y="5.85" style="font-family: 'Times New Roman'; font-size: 15px; fill: rgb(42, 63, 95); fill-opacity: 1; white-space: pre;">infograph</text><g class="layers" style="opacity: 1;"><g class="legendfill"/><g class="legendlines"><path class="js-line" d="M5,0h30" style="fill: none; stroke: rgb(153, 0, 153); stroke-opacity: 1; stroke-width: 3px;"/></g><g class="legendsymbols"><g class="legendpoints"/></g></g><rect class="legendtoggle" pointer-events="all" x="0" y="-11.25" width="103.46875" height="22.5" style="cursor: pointer; fill: rgb(0, 0, 0); fill-opacity: 0;"/></g><g class="traces" transform="translate(2.2, 130.95)" style="opacity: 1;"><text class="legendtext user-select-none" text-anchor="start" x="40" y="5.85" style="font-family: 'Times New Roman'; font-size: 15px; fill: rgb(42, 63, 95); fill-opacity: 1; white-space: pre;">quickdraw</text><g class="layers" style="opacity: 1;"><g class="legendfill"/><g class="legendlines"><path class="js-line" d="M5,0h30" style="fill: none; stroke: rgb(64, 64, 64); stroke-opacity: 1; stroke-width: 3px;"/></g><g class="legendsymbols"><g class="legendpoints"/></g></g><rect class="legendtoggle" pointer-events="all" x="0" y="-11.25" width="103.46875" height="22.5" style="cursor: pointer; fill: rgb(0, 0, 0); fill-opacity: 0;"/></g></g></g><rect class="scrollbar" rx="20" ry="3" width="0" height="0" x="0" y="0" style="fill: rgb(128, 139, 164); fill-opacity: 1;"/></g><g class="g-gtitle"/><g class="g-xtitle"><text class="xtitle" x="275" y="465" text-anchor="middle" style="font-family: 'Times New Roman'; font-size: 20px; fill: rgb(42, 63, 95); opacity: 1; font-weight: normal; white-space: pre;">Training Process (<tspan style="font-style:italic">t/t​<tspan style="font-size:70%" dy="0.3em">max</tspan><tspan dy="-0.21em">​</tspan> </tspan>)</text></g><g class="g-ytitle"><text class="ytitle" transform="rotate(-90,21.828125,260)" x="21.828125" y="260" text-anchor="middle" style="font-family: 'Times New Roman'; font-size: 20px; fill: rgb(42, 63, 95); opacity: 1; font-weight: normal; white-space: pre;">Top-5 accuracy</text></g></g></svg>